M48
; DRILL file {KiCad 7.0.8} date Mon Nov 13 12:09:59 2023
; FORMAT={-:-/ absolute / inch / decimal}
; #@! TF.CreationDate,2023-11-13T12:09:59-08:00
; #@! TF.GenerationSoftware,Kicad,Pcbnew,7.0.8
; #@! TF.FileFunction,Plated,1,2,PTH
FMAT,2
INCH
; #@! TA.AperFunction,Plated,PTH,ComponentDrill
T1C0.0197
; #@! TA.AperFunction,Plated,PTH,ComponentDrill
T2C0.0256
; #@! TA.AperFunction,Plated,PTH,ComponentDrill
T3C0.0270
; #@! TA.AperFunction,Plated,PTH,ComponentDrill
T4C0.0315
; #@! TA.AperFunction,Plated,PTH,ComponentDrill
T5C0.0433
%
G90
G05
T1
X5.602Y-2.784
X5.83Y-2.856
X5.832Y-2.938
X6.7546Y-3.56
X6.7546Y-3.5994
X6.7546Y-3.6387
X6.794Y-3.56
X6.794Y-3.5994
X6.794Y-3.6387
X6.824Y-2.63
X6.824Y-2.6694
X6.824Y-2.7087
X6.824Y-2.7481
X6.916Y-3.604
X6.92Y-2.762
X6.926Y-2.674
T2
X6.712Y-2.568
X6.712Y-2.618
X6.712Y-2.668
X6.712Y-2.718
X6.712Y-2.768
X6.712Y-2.818
X6.712Y-2.868
T3
X6.072Y-3.678
X6.072Y-3.8701
T4
X5.71Y-2.62
X5.71Y-2.6987
X5.71Y-2.7775
X5.71Y-2.8562
X5.71Y-2.935
X5.71Y-3.0137
X6.3Y-2.7
X6.3Y-2.8
X6.3Y-2.9
X6.3Y-3.0
X6.3Y-3.1
X6.3Y-3.2
X6.3Y-3.3
X6.3Y-3.4
X6.3Y-3.5
X6.3Y-3.6
X6.3Y-3.7
X6.3Y-3.8
X6.3Y-3.9
X6.3Y-4.0
X6.6Y-2.7
X6.6Y-2.8
X6.6Y-2.9
X6.6Y-3.0
X6.6Y-3.1
X6.6Y-3.2
X6.6Y-3.3
X6.6Y-3.4
X6.6Y-3.5
X6.6Y-3.6
X6.6Y-3.7
X6.6Y-3.8
X6.6Y-3.9
X6.6Y-4.0
T5
X5.6248Y-3.188
X5.6248Y-3.4439
X5.802Y-3.188
X5.802Y-3.4439
X6.0788Y-2.248
X6.0788Y-2.5039
X6.256Y-2.248
X6.256Y-2.5039
T0
M30
