%TF.GenerationSoftware,KiCad,Pcbnew,7.0.8*%
%TF.CreationDate,2023-11-13T12:09:03-08:00*%
%TF.ProjectId,411 PCB Arduino + Board Design,34313120-5043-4422-9041-726475696e6f,rev?*%
%TF.SameCoordinates,Original*%
%TF.FileFunction,Soldermask,Bot*%
%TF.FilePolarity,Negative*%
%FSLAX46Y46*%
G04 Gerber Fmt 4.6, Leading zero omitted, Abs format (unit mm)*
G04 Created by KiCad (PCBNEW 7.0.8) date 2023-11-13 12:09:03*
%MOMM*%
%LPD*%
G01*
G04 APERTURE LIST*
%ADD10R,0.850000X0.850000*%
%ADD11C,2.000000*%
%ADD12R,1.000000X1.000000*%
%ADD13O,1.000000X1.000000*%
%ADD14C,1.193800*%
%ADD15O,0.850000X0.850000*%
%ADD16R,1.600000X1.600000*%
%ADD17O,1.600000X1.600000*%
%ADD18R,1.350000X1.350000*%
%ADD19O,1.350000X1.350000*%
G04 APERTURE END LIST*
D10*
%TO.C,TP4*%
X148132800Y-74625200D03*
%TD*%
D11*
%TO.C,SW3*%
X147370800Y-87475200D03*
X142870800Y-87475200D03*
X147370800Y-80975200D03*
X142870800Y-80975200D03*
%TD*%
D10*
%TO.C,TP3*%
X148082000Y-72542400D03*
%TD*%
D12*
%TO.C,JP1*%
X170484800Y-65227200D03*
D13*
X170484800Y-66497200D03*
X170484800Y-67767200D03*
X170484800Y-69037200D03*
X170484800Y-70307200D03*
X170484800Y-71577200D03*
X170484800Y-72847200D03*
%TD*%
D11*
%TO.C,SW1*%
X154402400Y-63599200D03*
X154402400Y-57099200D03*
X158902400Y-63599200D03*
X158902400Y-57099200D03*
%TD*%
D14*
%TO.C,Y1*%
X154228800Y-93421200D03*
X154228800Y-98301201D03*
%TD*%
D10*
%TO.C,J4*%
X173329600Y-66802000D03*
D15*
X173329600Y-67802000D03*
X173329600Y-68802000D03*
X173329600Y-69802000D03*
%TD*%
D10*
%TO.C,TP2*%
X142290800Y-70713600D03*
%TD*%
D16*
%TO.C,U1*%
X160020000Y-68580000D03*
D17*
X160020000Y-71120000D03*
X160020000Y-73660000D03*
X160020000Y-76200000D03*
X160020000Y-78740000D03*
X160020000Y-81280000D03*
X160020000Y-83820000D03*
X160020000Y-86360000D03*
X160020000Y-88900000D03*
X160020000Y-91440000D03*
X160020000Y-93980000D03*
X160020000Y-96520000D03*
X160020000Y-99060000D03*
X160020000Y-101600000D03*
X167640000Y-101600000D03*
X167640000Y-99060000D03*
X167640000Y-96520000D03*
X167640000Y-93980000D03*
X167640000Y-91440000D03*
X167640000Y-88900000D03*
X167640000Y-86360000D03*
X167640000Y-83820000D03*
X167640000Y-81280000D03*
X167640000Y-78740000D03*
X167640000Y-76200000D03*
X167640000Y-73660000D03*
X167640000Y-71120000D03*
X167640000Y-68580000D03*
%TD*%
D10*
%TO.C,TP6*%
X175768000Y-70154800D03*
%TD*%
%TO.C,TP1*%
X175666400Y-91541600D03*
%TD*%
D15*
%TO.C,J1*%
X171567600Y-92424000D03*
X171567600Y-91424000D03*
X171567600Y-90424000D03*
D10*
X172567600Y-92424000D03*
D15*
X172567600Y-91424000D03*
X172567600Y-90424000D03*
%TD*%
D10*
%TO.C,TP5*%
X175920400Y-67919600D03*
%TD*%
D18*
%TO.C,J2*%
X145034000Y-66548000D03*
D19*
X145034000Y-68548000D03*
X145034000Y-70548000D03*
X145034000Y-72548000D03*
X145034000Y-74548000D03*
X145034000Y-76548000D03*
%TD*%
M02*
